<?xml version="1.0" encoding="utf-8" standalone="no"?>
<!DOCTYPE svg PUBLIC "-//W3C//DTD SVG 1.1//EN"
  "http://www.w3.org/Graphics/SVG/1.1/DTD/svg11.dtd">
<svg xmlns:xlink="http://www.w3.org/1999/xlink" width="720pt" height="432pt" viewBox="0 0 720 432" xmlns="http://www.w3.org/2000/svg" version="1.1">
 <metadata>
  <rdf:RDF xmlns:dc="http://purl.org/dc/elements/1.1/" xmlns:cc="http://creativecommons.org/ns#" xmlns:rdf="http://www.w3.org/1999/02/22-rdf-syntax-ns#">
   <cc:Work>
    <dc:type rdf:resource="http://purl.org/dc/dcmitype/StillImage"/>
    <dc:date>2025-08-17T01:23:47.660638</dc:date>
    <dc:format>image/svg+xml</dc:format>
    <dc:creator>
     <cc:Agent>
      <dc:title>Matplotlib v3.10.5, https://matplotlib.org/</dc:title>
     </cc:Agent>
    </dc:creator>
   </cc:Work>
  </rdf:RDF>
 </metadata>
 <defs>
  <style type="text/css">*{stroke-linejoin: round; stroke-linecap: butt}</style>
 </defs>
 <g id="figure_1">
  <g id="patch_1">
   <path d="M 0 432 
L 720 432 
L 720 0 
L 0 0 
z
" style="fill: #ffffff"/>
  </g>
  <g id="axes_1">
   <g id="patch_2">
    <path d="M 46.64 390.04 
L 709.2 390.04 
L 709.2 26.88 
L 46.64 26.88 
z
" style="fill: #ffffff"/>
   </g>
   <g id="FillBetweenPolyCollection_1">
    <defs>
     <path id="m66af8ba566" d="M 93.972862 -104.255199 
L 93.958567 -104.255199 
L 93.945028 -106.775029 
L 93.917569 -109.294859 
L 93.874755 -111.814689 
L 93.82456 -114.33452 
L 93.782249 -116.85435 
L 93.757937 -119.37418 
L 93.744471 -121.89401 
L 93.720119 -124.41384 
L 93.663379 -126.93367 
L 93.562763 -129.453501 
L 93.41647 -131.973331 
L 93.231401 -134.493161 
L 93.022106 -137.012991 
L 92.801298 -139.532821 
L 92.565688 -142.052651 
L 92.293165 -144.572482 
L 91.958107 -147.092312 
L 91.549489 -149.612142 
L 91.06978 -152.131972 
L 90.516201 -154.651802 
L 89.86706 -157.171632 
L 89.086511 -159.691463 
L 88.146338 -162.211293 
L 87.053518 -164.731123 
L 85.856541 -167.250953 
L 84.611488 -169.770783 
L 83.331235 -172.290613 
L 81.968371 -174.810443 
L 80.45945 -177.330274 
L 78.798239 -179.850104 
L 77.063196 -182.369934 
L 75.362387 -184.889764 
L 73.756238 -187.409594 
L 72.246631 -189.929424 
L 70.81515 -192.449255 
L 69.412604 -194.969085 
L 67.914466 -197.488915 
L 66.188159 -200.008745 
L 64.270042 -202.528575 
L 62.405796 -205.048405 
L 60.8386 -207.568236 
L 59.600414 -210.088066 
L 58.562503 -212.607896 
L 57.635061 -215.127726 
L 56.857648 -217.647556 
L 56.328132 -220.167386 
L 56.105143 -222.687217 
L 56.201077 -225.207047 
L 56.641723 -227.726877 
L 57.460432 -230.246707 
L 58.59023 -232.766537 
L 59.818074 -235.286367 
L 60.924717 -237.806198 
L 61.865546 -240.326028 
L 62.782937 -242.845858 
L 63.87175 -245.365688 
L 65.264505 -247.885518 
L 67.002304 -250.405348 
L 69.039549 -252.925178 
L 71.252005 -255.445009 
L 73.47488 -257.964839 
L 75.563442 -260.484669 
L 77.426381 -263.004499 
L 79.029759 -265.524329 
L 80.403942 -268.044159 
L 81.64488 -270.56399 
L 82.880606 -273.08382 
L 84.204282 -275.60365 
L 85.608619 -278.12348 
L 86.976208 -280.64331 
L 88.155977 -283.16314 
L 89.072541 -285.682971 
L 89.764789 -288.202801 
L 90.324243 -290.722631 
L 90.816334 -293.242461 
L 91.263768 -295.762291 
L 91.675354 -298.282121 
L 92.062256 -300.801952 
L 92.42847 -303.321782 
L 92.762821 -305.841612 
L 93.048126 -308.361442 
L 93.275345 -310.881272 
L 93.446416 -313.401102 
L 93.567669 -315.920932 
L 93.647424 -318.440763 
L 93.699347 -320.960593 
L 93.740476 -323.480423 
L 93.782131 -326.000253 
L 93.824605 -328.520083 
L 93.861353 -331.039913 
L 93.886675 -333.559744 
L 93.899582 -336.079574 
L 93.903543 -338.599404 
L 93.905122 -341.119234 
L 93.911136 -343.639064 
L 93.923974 -346.158894 
L 93.939854 -348.678725 
L 93.953031 -351.198555 
L 93.960845 -353.718385 
L 93.970584 -353.718385 
L 93.970584 -353.718385 
L 93.978397 -351.198555 
L 93.991575 -348.678725 
L 94.007455 -346.158894 
L 94.020293 -343.639064 
L 94.026307 -341.119234 
L 94.027885 -338.599404 
L 94.031846 -336.079574 
L 94.044753 -333.559744 
L 94.070076 -331.039913 
L 94.106824 -328.520083 
L 94.149298 -326.000253 
L 94.190952 -323.480423 
L 94.232081 -320.960593 
L 94.284005 -318.440763 
L 94.363759 -315.920932 
L 94.485012 -313.401102 
L 94.656083 -310.881272 
L 94.883303 -308.361442 
L 95.168607 -305.841612 
L 95.502958 -303.321782 
L 95.869172 -300.801952 
L 96.256074 -298.282121 
L 96.66766 -295.762291 
L 97.115095 -293.242461 
L 97.607185 -290.722631 
L 98.16664 -288.202801 
L 98.858887 -285.682971 
L 99.775452 -283.16314 
L 100.955221 -280.64331 
L 102.32281 -278.12348 
L 103.727147 -275.60365 
L 105.050822 -273.08382 
L 106.286548 -270.56399 
L 107.527487 -268.044159 
L 108.90167 -265.524329 
L 110.505047 -263.004499 
L 112.367987 -260.484669 
L 114.456549 -257.964839 
L 116.679423 -255.445009 
L 118.891879 -252.925178 
L 120.929124 -250.405348 
L 122.666923 -247.885518 
L 124.059679 -245.365688 
L 125.148491 -242.845858 
L 126.065883 -240.326028 
L 127.006712 -237.806198 
L 128.113354 -235.286367 
L 129.341199 -232.766537 
L 130.470997 -230.246707 
L 131.289705 -227.726877 
L 131.730351 -225.207047 
L 131.826286 -222.687217 
L 131.603297 -220.167386 
L 131.073781 -217.647556 
L 130.296367 -215.127726 
L 129.368925 -212.607896 
L 128.331015 -210.088066 
L 127.092829 -207.568236 
L 125.525633 -205.048405 
L 123.661386 -202.528575 
L 121.743269 -200.008745 
L 120.016962 -197.488915 
L 118.518825 -194.969085 
L 117.116279 -192.449255 
L 115.684798 -189.929424 
L 114.17519 -187.409594 
L 112.569042 -184.889764 
L 110.868233 -182.369934 
L 109.13319 -179.850104 
L 107.471979 -177.330274 
L 105.963058 -174.810443 
L 104.600193 -172.290613 
L 103.319941 -169.770783 
L 102.074888 -167.250953 
L 100.87791 -164.731123 
L 99.78509 -162.211293 
L 98.844917 -159.691463 
L 98.064369 -157.171632 
L 97.415227 -154.651802 
L 96.861649 -152.131972 
L 96.38194 -149.612142 
L 95.973321 -147.092312 
L 95.638264 -144.572482 
L 95.36574 -142.052651 
L 95.130131 -139.532821 
L 94.909323 -137.012991 
L 94.700027 -134.493161 
L 94.514958 -131.973331 
L 94.368666 -129.453501 
L 94.26805 -126.93367 
L 94.21131 -124.41384 
L 94.186958 -121.89401 
L 94.173492 -119.37418 
L 94.14918 -116.85435 
L 94.106868 -114.33452 
L 94.056673 -111.814689 
L 94.013859 -109.294859 
L 93.986401 -106.775029 
L 93.972862 -104.255199 
z
" style="stroke: #131313; stroke-width: 1.25"/>
    </defs>
    <g clip-path="url(#p8395c5cb1e)">
     <use xlink:href="#m66af8ba566" x="0" y="432" style="fill: #202020; stroke: #131313; stroke-width: 1.25"/>
    </g>
   </g>
   <g id="FillBetweenPolyCollection_2">
    <defs>
     <path id="md837057da8" d="M 188.620448 -122.190094 
L 188.613838 -122.190094 
L 188.608796 -124.881231 
L 188.601278 -127.572369 
L 188.59435 -130.263507 
L 188.591923 -132.954645 
L 188.593978 -135.645782 
L 188.595 -138.33692 
L 188.588211 -141.028058 
L 188.570166 -143.719195 
L 188.540878 -146.410333 
L 188.50088 -149.101471 
L 188.447836 -151.792609 
L 188.375076 -154.483746 
L 188.276555 -157.174884 
L 188.156416 -159.866022 
L 188.029584 -162.557159 
L 187.905014 -165.248297 
L 187.765055 -167.939435 
L 187.566832 -170.630573 
L 187.27175 -173.32171 
L 186.872783 -176.012848 
L 186.390221 -178.703986 
L 185.848702 -181.395123 
L 185.262571 -184.086261 
L 184.632308 -186.777399 
L 183.945165 -189.468537 
L 183.178972 -192.159674 
L 182.308038 -194.850812 
L 181.306723 -197.54195 
L 180.146509 -200.233087 
L 178.796361 -202.924225 
L 177.2417 -205.615363 
L 175.508283 -208.306501 
L 173.66603 -210.997638 
L 171.822413 -213.688776 
L 170.102327 -216.379914 
L 168.570911 -219.071051 
L 167.14422 -221.762189 
L 165.628593 -224.453327 
L 163.875437 -227.144465 
L 161.867694 -229.835602 
L 159.70091 -232.52674 
L 157.562066 -235.217878 
L 155.685714 -237.909015 
L 154.239272 -240.600153 
L 153.235844 -243.291291 
L 152.567139 -245.982428 
L 152.092024 -248.673566 
L 151.683948 -251.364704 
L 151.267954 -254.055842 
L 150.894963 -256.746979 
L 150.756571 -259.438117 
L 151.032534 -262.129255 
L 151.695396 -264.820392 
L 152.548732 -267.51153 
L 153.496775 -270.202668 
L 154.685287 -272.893806 
L 156.319938 -275.584943 
L 158.388534 -278.276081 
L 160.605864 -280.967219 
L 162.647744 -283.658356 
L 164.415137 -286.349494 
L 166.03282 -289.040632 
L 167.648862 -291.73177 
L 169.329341 -294.422907 
L 171.094821 -297.114045 
L 172.930255 -299.805183 
L 174.763489 -302.49632 
L 176.507902 -305.187458 
L 178.117656 -307.878596 
L 179.576921 -310.569734 
L 180.866675 -313.260871 
L 181.975607 -315.952009 
L 182.939996 -318.643147 
L 183.83696 -321.334284 
L 184.707816 -324.025422 
L 185.503788 -326.71656 
L 186.136126 -329.407698 
L 186.57279 -332.098835 
L 186.869417 -334.789973 
L 187.115243 -337.481111 
L 187.363333 -340.172248 
L 187.60791 -342.863386 
L 187.816264 -345.554524 
L 187.974335 -348.245662 
L 188.09752 -350.936799 
L 188.205929 -353.627937 
L 188.305369 -356.319075 
L 188.392006 -359.010212 
L 188.46107 -361.70135 
L 188.509018 -364.392488 
L 188.536898 -367.083626 
L 188.552327 -369.774763 
L 188.563296 -372.465901 
L 188.572709 -375.157039 
L 188.581229 -377.848176 
L 188.590314 -380.539314 
L 188.600132 -383.230452 
L 188.60855 -385.92159 
L 188.613798 -388.612727 
L 188.620488 -388.612727 
L 188.620488 -388.612727 
L 188.625736 -385.92159 
L 188.634154 -383.230452 
L 188.643971 -380.539314 
L 188.653056 -377.848176 
L 188.661577 -375.157039 
L 188.67099 -372.465901 
L 188.681959 -369.774763 
L 188.697387 -367.083626 
L 188.725268 -364.392488 
L 188.773216 -361.70135 
L 188.84228 -359.010212 
L 188.928917 -356.319075 
L 189.028357 -353.627937 
L 189.136765 -350.936799 
L 189.259951 -348.245662 
L 189.418022 -345.554524 
L 189.626376 -342.863386 
L 189.870952 -340.172248 
L 190.119042 -337.481111 
L 190.364869 -334.789973 
L 190.661496 -332.098835 
L 191.09816 -329.407698 
L 191.730498 -326.71656 
L 192.526469 -324.025422 
L 193.397325 -321.334284 
L 194.29429 -318.643147 
L 195.258679 -315.952009 
L 196.36761 -313.260871 
L 197.657364 -310.569734 
L 199.11663 -307.878596 
L 200.726383 -305.187458 
L 202.470796 -302.49632 
L 204.30403 -299.805183 
L 206.139465 -297.114045 
L 207.904945 -294.422907 
L 209.585423 -291.73177 
L 211.201465 -289.040632 
L 212.819149 -286.349494 
L 214.586541 -283.658356 
L 216.628422 -280.967219 
L 218.845752 -278.276081 
L 220.914348 -275.584943 
L 222.548999 -272.893806 
L 223.737511 -270.202668 
L 224.685553 -267.51153 
L 225.538889 -264.820392 
L 226.201752 -262.129255 
L 226.477714 -259.438117 
L 226.339323 -256.746979 
L 225.966332 -254.055842 
L 225.550338 -251.364704 
L 225.142261 -248.673566 
L 224.667146 -245.982428 
L 223.998442 -243.291291 
L 222.995014 -240.600153 
L 221.548572 -237.909015 
L 219.67222 -235.217878 
L 217.533376 -232.52674 
L 215.366592 -229.835602 
L 213.358848 -227.144465 
L 211.605692 -224.453327 
L 210.090066 -221.762189 
L 208.663375 -219.071051 
L 207.131959 -216.379914 
L 205.411873 -213.688776 
L 203.568256 -210.997638 
L 201.726003 -208.306501 
L 199.992586 -205.615363 
L 198.437925 -202.924225 
L 197.087777 -200.233087 
L 195.927562 -197.54195 
L 194.926248 -194.850812 
L 194.055314 -192.159674 
L 193.289121 -189.468537 
L 192.601978 -186.777399 
L 191.971715 -184.086261 
L 191.385583 -181.395123 
L 190.844065 -178.703986 
L 190.361503 -176.012848 
L 189.962535 -173.32171 
L 189.667454 -170.630573 
L 189.46923 -167.939435 
L 189.329272 -165.248297 
L 189.204702 -162.557159 
L 189.07787 -159.866022 
L 188.957731 -157.174884 
L 188.85921 -154.483746 
L 188.78645 -151.792609 
L 188.733406 -149.101471 
L 188.693408 -146.410333 
L 188.66412 -143.719195 
L 188.646075 -141.028058 
L 188.639286 -138.33692 
L 188.640307 -135.645782 
L 188.642362 -132.954645 
L 188.639936 -130.263507 
L 188.633008 -127.572369 
L 188.62549 -124.881231 
L 188.620448 -122.190094 
z
" style="stroke: #131313; stroke-width: 1.25"/>
    </defs>
    <g clip-path="url(#p8395c5cb1e)">
     <use xlink:href="#md837057da8" x="0" y="432" style="fill: #404040; stroke: #131313; stroke-width: 1.25"/>
    </g>
   </g>
   <g id="FillBetweenPolyCollection_3">
    <defs>
     <path id="m76709efdbe" d="M 283.27252 -139.050776 
L 283.264623 -139.050776 
L 283.257919 -141.481409 
L 283.244111 -143.912042 
L 283.219357 -146.342675 
L 283.179695 -148.773307 
L 283.122838 -151.20394 
L 283.051438 -153.634573 
L 282.974161 -156.065206 
L 282.899533 -158.495839 
L 282.825762 -160.926472 
L 282.739346 -163.357105 
L 282.628002 -165.787738 
L 282.492861 -168.21837 
L 282.342435 -170.649003 
L 282.175573 -173.079636 
L 281.976105 -175.510269 
L 281.724894 -177.940902 
L 281.414092 -180.371535 
L 281.050383 -182.802168 
L 280.646872 -185.232801 
L 280.209868 -187.663433 
L 279.7286 -190.094066 
L 279.175619 -192.524699 
L 278.520873 -194.955332 
L 277.755325 -197.385965 
L 276.907851 -199.816598 
L 276.028235 -202.247231 
L 275.137 -204.677864 
L 274.195022 -207.108496 
L 273.131045 -209.539129 
L 271.892019 -211.969762 
L 270.466779 -214.400395 
L 268.882188 -216.831028 
L 267.191653 -219.261661 
L 265.45801 -221.692294 
L 263.724546 -224.122927 
L 261.990004 -226.553559 
L 260.226373 -228.984192 
L 258.441673 -231.414825 
L 256.713955 -233.845458 
L 255.134857 -236.276091 
L 253.717691 -238.706724 
L 252.378464 -241.137357 
L 251.013448 -243.56799 
L 249.599007 -245.998622 
L 248.229304 -248.429255 
L 247.062956 -250.859888 
L 246.21704 -253.290521 
L 245.694295 -255.721154 
L 245.426376 -258.151787 
L 245.408 -260.58242 
L 245.748654 -263.013053 
L 246.530562 -265.443685 
L 247.639851 -267.874318 
L 248.810442 -270.304951 
L 249.832929 -272.735584 
L 250.68461 -275.166217 
L 251.498971 -277.59685 
L 252.478356 -280.027483 
L 253.811969 -282.458115 
L 255.586123 -284.888748 
L 257.715947 -287.319381 
L 259.967825 -289.750014 
L 262.081763 -292.180647 
L 263.911202 -294.61128 
L 265.478623 -297.041913 
L 266.914141 -299.472546 
L 268.33222 -301.903178 
L 269.748251 -304.333811 
L 271.108846 -306.764444 
L 272.392316 -309.195077 
L 273.643129 -311.62571 
L 274.894428 -314.056343 
L 276.097334 -316.486976 
L 277.158405 -318.917609 
L 278.026816 -321.348241 
L 278.725477 -323.778874 
L 279.315987 -326.209507 
L 279.852073 -328.64014 
L 280.355121 -331.070773 
L 280.815606 -333.501406 
L 281.213844 -335.932039 
L 281.54317 -338.362672 
L 281.817625 -340.793304 
L 282.062148 -343.223937 
L 282.29518 -345.65457 
L 282.514743 -348.085203 
L 282.699616 -350.515836 
L 282.828934 -352.946469 
L 282.903039 -355.377102 
L 282.944296 -357.807735 
L 282.979281 -360.238367 
L 283.022209 -362.669 
L 283.072855 -365.099633 
L 283.124724 -367.530266 
L 283.171945 -369.960899 
L 283.210591 -372.391532 
L 283.238356 -374.822165 
L 283.255244 -377.252798 
L 283.263693 -379.68343 
L 283.27345 -379.68343 
L 283.27345 -379.68343 
L 283.281899 -377.252798 
L 283.298787 -374.822165 
L 283.326551 -372.391532 
L 283.365198 -369.960899 
L 283.412419 -367.530266 
L 283.464288 -365.099633 
L 283.514934 -362.669 
L 283.557862 -360.238367 
L 283.592847 -357.807735 
L 283.634104 -355.377102 
L 283.708209 -352.946469 
L 283.837527 -350.515836 
L 284.0224 -348.085203 
L 284.241963 -345.65457 
L 284.474995 -343.223937 
L 284.719518 -340.793304 
L 284.993973 -338.362672 
L 285.323299 -335.932039 
L 285.721537 -333.501406 
L 286.182021 -331.070773 
L 286.68507 -328.64014 
L 287.221156 -326.209507 
L 287.811666 -323.778874 
L 288.510327 -321.348241 
L 289.378738 -318.917609 
L 290.439808 -316.486976 
L 291.642715 -314.056343 
L 292.894014 -311.62571 
L 294.144827 -309.195077 
L 295.428296 -306.764444 
L 296.788892 -304.333811 
L 298.204923 -301.903178 
L 299.623002 -299.472546 
L 301.05852 -297.041913 
L 302.625941 -294.61128 
L 304.45538 -292.180647 
L 306.569318 -289.750014 
L 308.821196 -287.319381 
L 310.95102 -284.888748 
L 312.725174 -282.458115 
L 314.058786 -280.027483 
L 315.038172 -277.59685 
L 315.852533 -275.166217 
L 316.704214 -272.735584 
L 317.726701 -270.304951 
L 318.897292 -267.874318 
L 320.006581 -265.443685 
L 320.788489 -263.013053 
L 321.129143 -260.58242 
L 321.110767 -258.151787 
L 320.842848 -255.721154 
L 320.320103 -253.290521 
L 319.474187 -250.859888 
L 318.307839 -248.429255 
L 316.938136 -245.998622 
L 315.523695 -243.56799 
L 314.158679 -241.137357 
L 312.819452 -238.706724 
L 311.402286 -236.276091 
L 309.823188 -233.845458 
L 308.09547 -231.414825 
L 306.31077 -228.984192 
L 304.547139 -226.553559 
L 302.812597 -224.122927 
L 301.079133 -221.692294 
L 299.34549 -219.261661 
L 297.654955 -216.831028 
L 296.070364 -214.400395 
L 294.645124 -211.969762 
L 293.406098 -209.539129 
L 292.342121 -207.108496 
L 291.400143 -204.677864 
L 290.508908 -202.247231 
L 289.629292 -199.816598 
L 288.781818 -197.385965 
L 288.01627 -194.955332 
L 287.361524 -192.524699 
L 286.808543 -190.094066 
L 286.327275 -187.663433 
L 285.890271 -185.232801 
L 285.48676 -182.802168 
L 285.12305 -180.371535 
L 284.812248 -177.940902 
L 284.561038 -175.510269 
L 284.36157 -173.079636 
L 284.194708 -170.649003 
L 284.044282 -168.21837 
L 283.909141 -165.787738 
L 283.797796 -163.357105 
L 283.711381 -160.926472 
L 283.63761 -158.495839 
L 283.562982 -156.065206 
L 283.485705 -153.634573 
L 283.414305 -151.20394 
L 283.357447 -148.773307 
L 283.317786 -146.342675 
L 283.293032 -143.912042 
L 283.279224 -141.481409 
L 283.27252 -139.050776 
z
" style="stroke: #131313; stroke-width: 1.25"/>
    </defs>
    <g clip-path="url(#p8395c5cb1e)">
     <use xlink:href="#m76709efdbe" x="0" y="432" style="fill: #606060; stroke: #131313; stroke-width: 1.25"/>
    </g>
   </g>
   <g id="FillBetweenPolyCollection_4">
    <defs>
     <path id="m60610c13b4" d="M 377.923538 -58.467273 
L 377.916462 -58.467273 
L 377.909993 -61.307446 
L 377.898386 -64.147619 
L 377.882948 -66.987793 
L 377.86692 -69.827966 
L 377.853085 -72.668139 
L 377.8432 -75.508312 
L 377.838631 -78.348486 
L 377.839545 -81.188659 
L 377.843284 -84.028832 
L 377.844756 -86.869006 
L 377.83774 -89.709179 
L 377.811279 -92.549352 
L 377.747922 -95.389525 
L 377.638766 -98.229699 
L 377.501499 -101.069872 
L 377.369349 -103.910045 
L 377.251392 -106.750219 
L 377.104558 -109.590392 
L 376.861633 -112.430565 
L 376.501785 -115.270738 
L 376.075515 -118.110912 
L 375.634901 -120.951085 
L 375.152908 -123.791258 
L 374.548723 -126.631432 
L 373.796914 -129.471605 
L 372.967037 -132.311778 
L 372.131575 -135.151951 
L 371.274758 -137.992125 
L 370.312942 -140.832298 
L 369.165501 -143.672471 
L 367.793473 -146.512644 
L 366.20118 -149.352818 
L 364.416326 -152.192991 
L 362.484818 -155.033164 
L 360.493166 -157.873338 
L 358.522113 -160.713511 
L 356.541803 -163.553684 
L 354.462228 -166.393857 
L 352.300657 -169.234031 
L 350.163949 -172.074204 
L 348.09707 -174.914377 
L 346.10231 -177.754551 
L 344.307642 -180.594724 
L 342.972594 -183.434897 
L 342.194478 -186.27507 
L 341.696579 -189.115244 
L 341.125157 -191.955417 
L 340.492083 -194.79559 
L 340.092433 -197.635764 
L 340.059429 -200.475937 
L 340.273093 -203.31611 
L 340.699969 -206.156283 
L 341.542459 -208.996457 
L 342.968031 -211.83663 
L 344.881483 -214.676803 
L 347.02533 -217.516977 
L 349.170126 -220.35715 
L 351.179975 -223.197323 
L 353.019348 -226.037496 
L 354.751623 -228.87767 
L 356.474429 -231.717843 
L 358.23869 -234.558016 
L 360.052454 -237.39819 
L 361.915212 -240.238363 
L 363.77654 -243.078536 
L 365.521554 -245.918709 
L 367.093315 -248.758883 
L 368.55958 -251.599056 
L 369.98687 -254.439229 
L 371.341066 -257.279403 
L 372.553223 -260.119576 
L 373.590349 -262.959749 
L 374.443282 -265.799922 
L 375.112707 -268.640096 
L 375.619644 -271.480269 
L 376.002465 -274.320442 
L 376.301337 -277.160615 
L 376.54978 -280.000789 
L 376.770943 -282.840962 
L 376.979339 -285.681135 
L 377.184591 -288.521309 
L 377.383228 -291.361482 
L 377.554647 -294.201655 
L 377.680185 -297.041828 
L 377.761466 -299.882002 
L 377.814166 -302.722175 
L 377.851715 -305.562348 
L 377.878856 -308.402522 
L 377.894723 -311.242695 
L 377.89885 -314.082868 
L 377.895531 -316.923041 
L 377.891844 -319.763215 
L 377.890995 -322.603388 
L 377.891081 -325.443561 
L 377.891487 -328.283735 
L 377.89514 -331.123908 
L 377.902897 -333.964081 
L 377.911222 -336.804254 
L 377.916707 -339.644428 
L 377.923293 -339.644428 
L 377.923293 -339.644428 
L 377.928778 -336.804254 
L 377.937103 -333.964081 
L 377.94486 -331.123908 
L 377.948513 -328.283735 
L 377.948919 -325.443561 
L 377.949005 -322.603388 
L 377.948156 -319.763215 
L 377.944469 -316.923041 
L 377.94115 -314.082868 
L 377.945277 -311.242695 
L 377.961144 -308.402522 
L 377.988285 -305.562348 
L 378.025834 -302.722175 
L 378.078534 -299.882002 
L 378.159815 -297.041828 
L 378.285353 -294.201655 
L 378.456772 -291.361482 
L 378.655409 -288.521309 
L 378.860661 -285.681135 
L 379.069057 -282.840962 
L 379.29022 -280.000789 
L 379.538663 -277.160615 
L 379.837535 -274.320442 
L 380.220356 -271.480269 
L 380.727293 -268.640096 
L 381.396718 -265.799922 
L 382.249651 -262.959749 
L 383.286777 -260.119576 
L 384.498934 -257.279403 
L 385.85313 -254.439229 
L 387.28042 -251.599056 
L 388.746685 -248.758883 
L 390.318446 -245.918709 
L 392.06346 -243.078536 
L 393.924788 -240.238363 
L 395.787546 -237.39819 
L 397.60131 -234.558016 
L 399.365571 -231.717843 
L 401.088377 -228.87767 
L 402.820652 -226.037496 
L 404.660025 -223.197323 
L 406.669874 -220.35715 
L 408.81467 -217.516977 
L 410.958517 -214.676803 
L 412.871969 -211.83663 
L 414.297541 -208.996457 
L 415.140031 -206.156283 
L 415.566907 -203.31611 
L 415.780571 -200.475937 
L 415.747567 -197.635764 
L 415.347917 -194.79559 
L 414.714843 -191.955417 
L 414.143421 -189.115244 
L 413.645522 -186.27507 
L 412.867406 -183.434897 
L 411.532358 -180.594724 
L 409.73769 -177.754551 
L 407.74293 -174.914377 
L 405.676051 -172.074204 
L 403.539343 -169.234031 
L 401.377772 -166.393857 
L 399.298197 -163.553684 
L 397.317887 -160.713511 
L 395.346834 -157.873338 
L 393.355182 -155.033164 
L 391.423674 -152.192991 
L 389.63882 -149.352818 
L 388.046527 -146.512644 
L 386.674499 -143.672471 
L 385.527058 -140.832298 
L 384.565242 -137.992125 
L 383.708425 -135.151951 
L 382.872963 -132.311778 
L 382.043086 -129.471605 
L 381.291277 -126.631432 
L 380.687092 -123.791258 
L 380.205099 -120.951085 
L 379.764485 -118.110912 
L 379.338215 -115.270738 
L 378.978367 -112.430565 
L 378.735442 -109.590392 
L 378.588608 -106.750219 
L 378.470651 -103.910045 
L 378.338501 -101.069872 
L 378.201234 -98.229699 
L 378.092078 -95.389525 
L 378.028721 -92.549352 
L 378.00226 -89.709179 
L 377.995244 -86.869006 
L 377.996716 -84.028832 
L 378.000455 -81.188659 
L 378.001369 -78.348486 
L 377.9968 -75.508312 
L 377.986915 -72.668139 
L 377.97308 -69.827966 
L 377.957052 -66.987793 
L 377.941614 -64.147619 
L 377.930007 -61.307446 
L 377.923538 -58.467273 
z
" style="stroke: #131313; stroke-width: 1.25"/>
    </defs>
    <g clip-path="url(#p8395c5cb1e)">
     <use xlink:href="#m60610c13b4" x="0" y="432" style="fill: #808080; stroke: #131313; stroke-width: 1.25"/>
    </g>
   </g>
   <g id="FillBetweenPolyCollection_5">
    <defs>
     <path id="mbf61b5e862" d="M 472.575127 -120.131147 
L 472.56773 -120.131147 
L 472.561796 -122.518491 
L 472.549922 -124.905836 
L 472.528989 -127.29318 
L 472.495974 -129.680525 
L 472.450437 -132.067869 
L 472.39753 -134.455214 
L 472.345363 -136.842558 
L 472.295037 -139.229903 
L 472.235385 -141.617247 
L 472.153708 -144.004592 
L 472.051369 -146.391936 
L 471.943126 -148.779281 
L 471.841081 -151.166625 
L 471.74341 -153.55397 
L 471.634469 -155.941314 
L 471.486152 -158.328659 
L 471.261767 -160.716003 
L 470.93305 -163.103348 
L 470.500411 -165.490692 
L 469.992882 -167.878037 
L 469.44371 -170.265381 
L 468.859789 -172.652726 
L 468.209251 -175.04007 
L 467.441733 -177.427415 
L 466.524633 -179.814759 
L 465.459252 -182.202104 
L 464.270408 -184.589448 
L 462.995326 -186.976793 
L 461.679287 -189.364137 
L 460.358552 -191.751482 
L 459.031835 -194.138826 
L 457.655526 -196.52617 
L 456.180315 -198.913515 
L 454.600223 -201.300859 
L 452.973919 -203.688204 
L 451.397605 -206.075548 
L 449.938471 -208.462893 
L 448.584937 -210.850237 
L 447.270155 -213.237582 
L 445.935199 -215.624926 
L 444.550595 -218.012271 
L 443.095888 -220.399615 
L 441.560219 -222.78696 
L 439.975192 -225.174304 
L 438.43433 -227.561649 
L 437.066539 -229.948993 
L 435.976718 -232.336338 
L 435.210252 -234.723682 
L 434.781609 -237.111027 
L 434.710857 -239.498371 
L 434.987382 -241.885716 
L 435.511071 -244.27306 
L 436.131669 -246.660405 
L 436.767365 -249.047749 
L 437.456193 -251.435094 
L 438.285726 -253.822438 
L 439.302493 -256.209783 
L 440.498703 -258.597127 
L 441.859254 -260.984472 
L 443.393214 -263.371816 
L 445.11054 -265.759161 
L 446.975986 -268.146505 
L 448.899598 -270.533849 
L 450.775871 -272.921194 
L 452.53105 -275.308538 
L 454.146472 -277.695883 
L 455.657034 -280.083227 
L 457.126935 -282.470572 
L 458.602306 -284.857916 
L 460.069592 -287.245261 
L 461.4697 -289.632605 
L 462.760168 -292.01995 
L 463.944188 -294.407294 
L 465.031246 -296.794639 
L 466.000199 -299.181983 
L 466.822261 -301.569328 
L 467.50099 -303.956672 
L 468.074525 -306.344017 
L 468.592441 -308.731361 
L 469.095783 -311.118706 
L 469.602859 -313.50605 
L 470.104096 -315.893395 
L 470.572795 -318.280739 
L 470.981806 -320.668084 
L 471.313957 -323.055428 
L 471.568323 -325.442773 
L 471.762425 -327.830117 
L 471.921854 -330.217462 
L 472.061583 -332.604806 
L 472.179103 -334.992151 
L 472.266991 -337.379495 
L 472.32809 -339.76684 
L 472.375703 -342.154184 
L 472.421735 -344.541529 
L 472.468145 -346.928873 
L 472.509264 -349.316217 
L 472.539419 -351.703562 
L 472.557509 -354.090906 
L 472.566371 -356.478251 
L 472.576486 -356.478251 
L 472.576486 -356.478251 
L 472.585348 -354.090906 
L 472.603438 -351.703562 
L 472.633593 -349.316217 
L 472.674713 -346.928873 
L 472.721122 -344.541529 
L 472.767154 -342.154184 
L 472.814767 -339.76684 
L 472.875867 -337.379495 
L 472.963754 -334.992151 
L 473.081274 -332.604806 
L 473.221003 -330.217462 
L 473.380432 -327.830117 
L 473.574534 -325.442773 
L 473.8289 -323.055428 
L 474.161051 -320.668084 
L 474.570062 -318.280739 
L 475.038761 -315.893395 
L 475.539998 -313.50605 
L 476.047074 -311.118706 
L 476.550417 -308.731361 
L 477.068333 -306.344017 
L 477.641868 -303.956672 
L 478.320596 -301.569328 
L 479.142659 -299.181983 
L 480.111611 -296.794639 
L 481.198669 -294.407294 
L 482.382689 -292.01995 
L 483.673158 -289.632605 
L 485.073265 -287.245261 
L 486.540551 -284.857916 
L 488.015922 -282.470572 
L 489.485823 -280.083227 
L 490.996385 -277.695883 
L 492.611807 -275.308538 
L 494.366986 -272.921194 
L 496.243259 -270.533849 
L 498.166871 -268.146505 
L 500.032317 -265.759161 
L 501.749644 -263.371816 
L 503.283603 -260.984472 
L 504.644155 -258.597127 
L 505.840364 -256.209783 
L 506.857131 -253.822438 
L 507.686664 -251.435094 
L 508.375492 -249.047749 
L 509.011189 -246.660405 
L 509.631786 -244.27306 
L 510.155476 -241.885716 
L 510.432 -239.498371 
L 510.361248 -237.111027 
L 509.932605 -234.723682 
L 509.16614 -232.336338 
L 508.076318 -229.948993 
L 506.708527 -227.561649 
L 505.167665 -225.174304 
L 503.582638 -222.78696 
L 502.046969 -220.399615 
L 500.592262 -218.012271 
L 499.207659 -215.624926 
L 497.872702 -213.237582 
L 496.55792 -210.850237 
L 495.204386 -208.462893 
L 493.745252 -206.075548 
L 492.168938 -203.688204 
L 490.542634 -201.300859 
L 488.962542 -198.913515 
L 487.487331 -196.52617 
L 486.111022 -194.138826 
L 484.784305 -191.751482 
L 483.46357 -189.364137 
L 482.147531 -186.976793 
L 480.872449 -184.589448 
L 479.683605 -182.202104 
L 478.618224 -179.814759 
L 477.701124 -177.427415 
L 476.933607 -175.04007 
L 476.283069 -172.652726 
L 475.699147 -170.265381 
L 475.149975 -167.878037 
L 474.642446 -165.490692 
L 474.209807 -163.103348 
L 473.88109 -160.716003 
L 473.656705 -158.328659 
L 473.508388 -155.941314 
L 473.399447 -153.55397 
L 473.301776 -151.166625 
L 473.199732 -148.779281 
L 473.091488 -146.391936 
L 472.989149 -144.004592 
L 472.907472 -141.617247 
L 472.84782 -139.229903 
L 472.797494 -136.842558 
L 472.745327 -134.455214 
L 472.69242 -132.067869 
L 472.646884 -129.680525 
L 472.613868 -127.29318 
L 472.592935 -124.905836 
L 472.581061 -122.518491 
L 472.575127 -120.131147 
z
" style="stroke: #131313; stroke-width: 1.25"/>
    </defs>
    <g clip-path="url(#p8395c5cb1e)">
     <use xlink:href="#mbf61b5e862" x="0" y="432" style="fill: #a0a0a0; stroke: #131313; stroke-width: 1.25"/>
    </g>
   </g>
   <g id="FillBetweenPolyCollection_6">
    <defs>
     <path id="m3dedaa1b0d" d="M 567.230292 -119.008598 
L 567.215422 -119.008598 
L 567.202564 -121.524191 
L 567.178388 -124.039784 
L 567.143163 -126.555377 
L 567.101916 -129.070971 
L 567.058387 -131.586564 
L 567.008748 -134.102157 
L 566.945649 -136.61775 
L 566.867829 -139.133343 
L 566.77882 -141.648936 
L 566.674583 -144.16453 
L 566.541051 -146.680123 
L 566.369076 -149.195716 
L 566.162037 -151.711309 
L 565.917219 -154.226902 
L 565.606479 -156.742495 
L 565.192095 -159.258089 
L 564.667892 -161.773682 
L 564.079771 -164.289275 
L 563.4966 -166.804868 
L 562.950385 -169.320461 
L 562.399809 -171.836054 
L 561.753102 -174.351648 
L 560.929111 -176.867241 
L 559.907956 -179.382834 
L 558.739721 -181.898427 
L 557.502282 -184.41402 
L 556.235087 -186.929613 
L 554.910781 -189.445207 
L 553.466872 -191.9608 
L 551.851173 -194.476393 
L 550.052752 -196.991986 
L 548.127682 -199.507579 
L 546.191246 -202.023172 
L 544.348723 -204.538766 
L 542.631312 -207.054359 
L 541.010408 -209.569952 
L 539.437913 -212.085545 
L 537.837555 -214.601138 
L 536.106992 -217.116731 
L 534.216404 -219.632325 
L 532.324805 -222.147918 
L 530.748861 -224.663511 
L 529.757712 -227.179104 
L 529.369502 -229.694697 
L 529.362286 -232.21029 
L 529.489507 -234.725884 
L 529.645115 -237.241477 
L 529.82644 -239.75707 
L 530.04663 -242.272663 
L 530.351992 -244.788256 
L 530.858475 -247.30385 
L 531.690159 -249.819443 
L 532.872177 -252.335036 
L 534.300877 -254.850629 
L 535.831702 -257.366222 
L 537.395929 -259.881815 
L 539.02317 -262.397409 
L 540.76338 -264.913002 
L 542.609568 -267.428595 
L 544.498895 -269.944188 
L 546.371654 -272.459781 
L 548.195693 -274.975374 
L 549.927999 -277.490968 
L 551.511853 -280.006561 
L 552.946621 -282.522154 
L 554.308713 -285.037747 
L 555.67177 -287.55334 
L 557.043862 -290.068933 
L 558.389911 -292.584527 
L 559.671336 -295.10012 
L 560.851118 -297.615713 
L 561.887964 -300.131306 
L 562.745115 -302.646899 
L 563.408234 -305.162492 
L 563.898629 -307.678086 
L 564.271939 -310.193679 
L 564.596988 -312.709272 
L 564.924787 -315.224865 
L 565.269531 -317.740458 
L 565.6127 -320.256051 
L 565.923378 -322.771645 
L 566.179814 -325.287238 
L 566.37958 -327.802831 
L 566.536297 -330.318424 
L 566.669176 -332.834017 
L 566.79107 -335.34961 
L 566.901015 -337.865204 
L 566.988171 -340.380797 
L 567.045105 -342.89639 
L 567.076714 -345.411983 
L 567.095895 -347.927576 
L 567.113205 -350.443169 
L 567.132224 -352.958763 
L 567.152149 -355.474356 
L 567.171513 -357.989949 
L 567.189132 -360.505542 
L 567.203581 -363.021135 
L 567.213616 -365.536729 
L 567.219244 -368.052322 
L 567.226471 -368.052322 
L 567.226471 -368.052322 
L 567.232098 -365.536729 
L 567.242134 -363.021135 
L 567.256582 -360.505542 
L 567.274201 -357.989949 
L 567.293565 -355.474356 
L 567.31349 -352.958763 
L 567.332509 -350.443169 
L 567.34982 -347.927576 
L 567.369 -345.411983 
L 567.400609 -342.89639 
L 567.457543 -340.380797 
L 567.5447 -337.865204 
L 567.654644 -335.34961 
L 567.776538 -332.834017 
L 567.909417 -330.318424 
L 568.066135 -327.802831 
L 568.2659 -325.287238 
L 568.522337 -322.771645 
L 568.833014 -320.256051 
L 569.176183 -317.740458 
L 569.520927 -315.224865 
L 569.848726 -312.709272 
L 570.173775 -310.193679 
L 570.547085 -307.678086 
L 571.03748 -305.162492 
L 571.700599 -302.646899 
L 572.55775 -300.131306 
L 573.594596 -297.615713 
L 574.774378 -295.10012 
L 576.055803 -292.584527 
L 577.401852 -290.068933 
L 578.773945 -287.55334 
L 580.137001 -285.037747 
L 581.499093 -282.522154 
L 582.933862 -280.006561 
L 584.517715 -277.490968 
L 586.250021 -274.975374 
L 588.074061 -272.459781 
L 589.946819 -269.944188 
L 591.836146 -267.428595 
L 593.682334 -264.913002 
L 595.422544 -262.397409 
L 597.049785 -259.881815 
L 598.614013 -257.366222 
L 600.144837 -254.850629 
L 601.573537 -252.335036 
L 602.755555 -249.819443 
L 603.58724 -247.30385 
L 604.093722 -244.788256 
L 604.399084 -242.272663 
L 604.619275 -239.75707 
L 604.800599 -237.241477 
L 604.956208 -234.725884 
L 605.083429 -232.21029 
L 605.076212 -229.694697 
L 604.688002 -227.179104 
L 603.696853 -224.663511 
L 602.120909 -222.147918 
L 600.22931 -219.632325 
L 598.338722 -217.116731 
L 596.60816 -214.601138 
L 595.007801 -212.085545 
L 593.435306 -209.569952 
L 591.814402 -207.054359 
L 590.096991 -204.538766 
L 588.254468 -202.023172 
L 586.318032 -199.507579 
L 584.392962 -196.991986 
L 582.594542 -194.476393 
L 580.978842 -191.9608 
L 579.534933 -189.445207 
L 578.210627 -186.929613 
L 576.943432 -184.41402 
L 575.705993 -181.898427 
L 574.537758 -179.382834 
L 573.516604 -176.867241 
L 572.692613 -174.351648 
L 572.045906 -171.836054 
L 571.49533 -169.320461 
L 570.949114 -166.804868 
L 570.365943 -164.289275 
L 569.777823 -161.773682 
L 569.25362 -159.258089 
L 568.839236 -156.742495 
L 568.528495 -154.226902 
L 568.283677 -151.711309 
L 568.076638 -149.195716 
L 567.904663 -146.680123 
L 567.771131 -144.16453 
L 567.666894 -141.648936 
L 567.577885 -139.133343 
L 567.500066 -136.61775 
L 567.436967 -134.102157 
L 567.387328 -131.586564 
L 567.343798 -129.070971 
L 567.302552 -126.555377 
L 567.267326 -124.039784 
L 567.24315 -121.524191 
L 567.230292 -119.008598 
z
" style="stroke: #131313; stroke-width: 1.25"/>
    </defs>
    <g clip-path="url(#p8395c5cb1e)">
     <use xlink:href="#m3dedaa1b0d" x="0" y="432" style="fill: #c0c0c0; stroke: #131313; stroke-width: 1.25"/>
    </g>
   </g>
   <g id="FillBetweenPolyCollection_7">
    <defs>
     <path id="m5a8bf9a967" d="M 661.87761 -96.898803 
L 661.870961 -96.898803 
L 661.865607 -99.673043 
L 661.857421 -102.447283 
L 661.84933 -105.221522 
L 661.844289 -107.995762 
L 661.840267 -110.770002 
L 661.83001 -113.544241 
L 661.805273 -116.318481 
L 661.759036 -119.092721 
L 661.68683 -121.866961 
L 661.590922 -124.6412 
L 661.48238 -127.41544 
L 661.375139 -130.18968 
L 661.276539 -132.96392 
L 661.182283 -135.738159 
L 661.073993 -138.512399 
L 660.918478 -141.286639 
L 660.679028 -144.060878 
L 660.335092 -146.835118 
L 659.888428 -149.609358 
L 659.353665 -152.383598 
L 658.746232 -155.157837 
L 658.066605 -157.932077 
L 657.295926 -160.706317 
L 656.41969 -163.480557 
L 655.438692 -166.254796 
L 654.346463 -169.029036 
L 653.127511 -171.803276 
L 651.77742 -174.577516 
L 650.29285 -177.351755 
L 648.647037 -180.125995 
L 646.798785 -182.900235 
L 644.769169 -185.674474 
L 642.715864 -188.448714 
L 640.827734 -191.222954 
L 639.118029 -193.997194 
L 637.430773 -196.771433 
L 635.637648 -199.545673 
L 633.720244 -202.319913 
L 631.7274 -205.094153 
L 629.787338 -207.868392 
L 628.103528 -210.642632 
L 626.801855 -213.416872 
L 625.815999 -216.191111 
L 625.03449 -218.965351 
L 624.477706 -221.739591 
L 624.196305 -224.513831 
L 624.101105 -227.28807 
L 624.041813 -230.06231 
L 624.013714 -232.83655 
L 624.196594 -235.61079 
L 624.795461 -238.385029 
L 625.913799 -241.159269 
L 627.569723 -243.933509 
L 629.693356 -246.707748 
L 632.075552 -249.481988 
L 634.464012 -252.256228 
L 636.724606 -255.030468 
L 638.818869 -257.804707 
L 640.717391 -260.578947 
L 642.434412 -263.353187 
L 644.057481 -266.127427 
L 645.677581 -268.901666 
L 647.309292 -271.675906 
L 648.889742 -274.450146 
L 650.376176 -277.224386 
L 651.808057 -279.998625 
L 653.21479 -282.772865 
L 654.532189 -285.547105 
L 655.665105 -288.321344 
L 656.575789 -291.095584 
L 657.314024 -293.869824 
L 657.996421 -296.644064 
L 658.710501 -299.418303 
L 659.421627 -302.192543 
L 660.018638 -304.966783 
L 660.441099 -307.741023 
L 660.727228 -310.515262 
L 660.957031 -313.289502 
L 661.175378 -316.063742 
L 661.36891 -318.837981 
L 661.507392 -321.612221 
L 661.590516 -324.386461 
L 661.645733 -327.160701 
L 661.695663 -329.93494 
L 661.742014 -332.70918 
L 661.775561 -335.48342 
L 661.792311 -338.25766 
L 661.799349 -341.031899 
L 661.807495 -343.806139 
L 661.821383 -346.580379 
L 661.837902 -349.354618 
L 661.850822 -352.128858 
L 661.855646 -354.903098 
L 661.853195 -357.677338 
L 661.849613 -360.451577 
L 661.851019 -363.225817 
L 661.857823 -366.000057 
L 661.865678 -368.774297 
L 661.87097 -371.548536 
L 661.877601 -371.548536 
L 661.877601 -371.548536 
L 661.882894 -368.774297 
L 661.890749 -366.000057 
L 661.897552 -363.225817 
L 661.898958 -360.451577 
L 661.895376 -357.677338 
L 661.892925 -354.903098 
L 661.89775 -352.128858 
L 661.91067 -349.354618 
L 661.927189 -346.580379 
L 661.941076 -343.806139 
L 661.949223 -341.031899 
L 661.95626 -338.25766 
L 661.97301 -335.48342 
L 662.006557 -332.70918 
L 662.052908 -329.93494 
L 662.102839 -327.160701 
L 662.158055 -324.386461 
L 662.241179 -321.612221 
L 662.379661 -318.837981 
L 662.573193 -316.063742 
L 662.791541 -313.289502 
L 663.021343 -310.515262 
L 663.307472 -307.741023 
L 663.729934 -304.966783 
L 664.326945 -302.192543 
L 665.038071 -299.418303 
L 665.752151 -296.644064 
L 666.434547 -293.869824 
L 667.172782 -291.095584 
L 668.083467 -288.321344 
L 669.216383 -285.547105 
L 670.533782 -282.772865 
L 671.940514 -279.998625 
L 673.372396 -277.224386 
L 674.858829 -274.450146 
L 676.43928 -271.675906 
L 678.070991 -268.901666 
L 679.69109 -266.127427 
L 681.314159 -263.353187 
L 683.03118 -260.578947 
L 684.929702 -257.804707 
L 687.023966 -255.030468 
L 689.28456 -252.256228 
L 691.673019 -249.481988 
L 694.055216 -246.707748 
L 696.178848 -243.933509 
L 697.834773 -241.159269 
L 698.95311 -238.385029 
L 699.551978 -235.61079 
L 699.734857 -232.83655 
L 699.706759 -230.06231 
L 699.647466 -227.28807 
L 699.552266 -224.513831 
L 699.270866 -221.739591 
L 698.714082 -218.965351 
L 697.932573 -216.191111 
L 696.946717 -213.416872 
L 695.645044 -210.642632 
L 693.961233 -207.868392 
L 692.021171 -205.094153 
L 690.028327 -202.319913 
L 688.110924 -199.545673 
L 686.317798 -196.771433 
L 684.630542 -193.997194 
L 682.920838 -191.222954 
L 681.032708 -188.448714 
L 678.979402 -185.674474 
L 676.949786 -182.900235 
L 675.101534 -180.125995 
L 673.455721 -177.351755 
L 671.971152 -174.577516 
L 670.621061 -171.803276 
L 669.402108 -169.029036 
L 668.30988 -166.254796 
L 667.328881 -163.480557 
L 666.452646 -160.706317 
L 665.681966 -157.932077 
L 665.00234 -155.157837 
L 664.394906 -152.383598 
L 663.860143 -149.609358 
L 663.413479 -146.835118 
L 663.069543 -144.060878 
L 662.830093 -141.286639 
L 662.674578 -138.512399 
L 662.566288 -135.738159 
L 662.472032 -132.96392 
L 662.373433 -130.18968 
L 662.266191 -127.41544 
L 662.157649 -124.6412 
L 662.061742 -121.866961 
L 661.989536 -119.092721 
L 661.943299 -116.318481 
L 661.918562 -113.544241 
L 661.908304 -110.770002 
L 661.904282 -107.995762 
L 661.899241 -105.221522 
L 661.89115 -102.447283 
L 661.882964 -99.673043 
L 661.87761 -96.898803 
z
" style="stroke: #131313; stroke-width: 1.25"/>
    </defs>
    <g clip-path="url(#p8395c5cb1e)">
     <use xlink:href="#m5a8bf9a967" x="0" y="432" style="fill: #e0e0e0; stroke: #131313; stroke-width: 1.25"/>
    </g>
   </g>
   <g id="matplotlib.axis_1">
    <g id="xtick_1">
     <g id="line2d_1">
      <defs>
       <path id="mb31e3de708" d="M 0 0 
L 0 3.5 
" style="stroke: #000000; stroke-width: 0.8"/>
      </defs>
      <g>
       <use xlink:href="#mb31e3de708" x="93.965714" y="390.04" style="stroke: #000000; stroke-width: 0.8"/>
      </g>
     </g>
     <g id="text_1">
      <!-- Arm 0 -->
      <g transform="translate(78.936808 404.638438) scale(0.1 -0.1)">
       <defs>
        <path id="DejaVuSans-41" d="M 2188 4044 
L 1331 1722 
L 3047 1722 
L 2188 4044 
z
M 1831 4666 
L 2547 4666 
L 4325 0 
L 3669 0 
L 3244 1197 
L 1141 1197 
L 716 0 
L 50 0 
L 1831 4666 
z
" transform="scale(0.015625)"/>
        <path id="DejaVuSans-72" d="M 2631 2963 
Q 2534 3019 2420 3045 
Q 2306 3072 2169 3072 
Q 1681 3072 1420 2755 
Q 1159 2438 1159 1844 
L 1159 0 
L 581 0 
L 581 3500 
L 1159 3500 
L 1159 2956 
Q 1341 3275 1631 3429 
Q 1922 3584 2338 3584 
Q 2397 3584 2469 3576 
Q 2541 3569 2628 3553 
L 2631 2963 
z
" transform="scale(0.015625)"/>
        <path id="DejaVuSans-6d" d="M 3328 2828 
Q 3544 3216 3844 3400 
Q 4144 3584 4550 3584 
Q 5097 3584 5394 3201 
Q 5691 2819 5691 2113 
L 5691 0 
L 5113 0 
L 5113 2094 
Q 5113 2597 4934 2840 
Q 4756 3084 4391 3084 
Q 3944 3084 3684 2787 
Q 3425 2491 3425 1978 
L 3425 0 
L 2847 0 
L 2847 2094 
Q 2847 2600 2669 2842 
Q 2491 3084 2119 3084 
Q 1678 3084 1418 2786 
Q 1159 2488 1159 1978 
L 1159 0 
L 581 0 
L 581 3500 
L 1159 3500 
L 1159 2956 
Q 1356 3278 1631 3431 
Q 1906 3584 2284 3584 
Q 2666 3584 2933 3390 
Q 3200 3197 3328 2828 
z
" transform="scale(0.015625)"/>
        <path id="DejaVuSans-20" transform="scale(0.015625)"/>
        <path id="DejaVuSans-30" d="M 2034 4250 
Q 1547 4250 1301 3770 
Q 1056 3291 1056 2328 
Q 1056 1369 1301 889 
Q 1547 409 2034 409 
Q 2525 409 2770 889 
Q 3016 1369 3016 2328 
Q 3016 3291 2770 3770 
Q 2525 4250 2034 4250 
z
M 2034 4750 
Q 2819 4750 3233 4129 
Q 3647 3509 3647 2328 
Q 3647 1150 3233 529 
Q 2819 -91 2034 -91 
Q 1250 -91 836 529 
Q 422 1150 422 2328 
Q 422 3509 836 4129 
Q 1250 4750 2034 4750 
z
" transform="scale(0.015625)"/>
       </defs>
       <use xlink:href="#DejaVuSans-41"/>
       <use xlink:href="#DejaVuSans-72" transform="translate(68.408203 0)"/>
       <use xlink:href="#DejaVuSans-6d" transform="translate(107.771484 0)"/>
       <use xlink:href="#DejaVuSans-20" transform="translate(205.183594 0)"/>
       <use xlink:href="#DejaVuSans-30" transform="translate(236.970703 0)"/>
      </g>
     </g>
    </g>
    <g id="xtick_2">
     <g id="line2d_2">
      <g>
       <use xlink:href="#mb31e3de708" x="188.617143" y="390.04" style="stroke: #000000; stroke-width: 0.8"/>
      </g>
     </g>
     <g id="text_2">
      <!-- Arm 1 -->
      <g transform="translate(173.588237 404.638438) scale(0.1 -0.1)">
       <defs>
        <path id="DejaVuSans-31" d="M 794 531 
L 1825 531 
L 1825 4091 
L 703 3866 
L 703 4441 
L 1819 4666 
L 2450 4666 
L 2450 531 
L 3481 531 
L 3481 0 
L 794 0 
L 794 531 
z
" transform="scale(0.015625)"/>
       </defs>
       <use xlink:href="#DejaVuSans-41"/>
       <use xlink:href="#DejaVuSans-72" transform="translate(68.408203 0)"/>
       <use xlink:href="#DejaVuSans-6d" transform="translate(107.771484 0)"/>
       <use xlink:href="#DejaVuSans-20" transform="translate(205.183594 0)"/>
       <use xlink:href="#DejaVuSans-31" transform="translate(236.970703 0)"/>
      </g>
     </g>
    </g>
    <g id="xtick_3">
     <g id="line2d_3">
      <g>
       <use xlink:href="#mb31e3de708" x="283.268571" y="390.04" style="stroke: #000000; stroke-width: 0.8"/>
      </g>
     </g>
     <g id="text_3">
      <!-- Arm 2 -->
      <g transform="translate(268.239665 404.638438) scale(0.1 -0.1)">
       <defs>
        <path id="DejaVuSans-32" d="M 1228 531 
L 3431 531 
L 3431 0 
L 469 0 
L 469 531 
Q 828 903 1448 1529 
Q 2069 2156 2228 2338 
Q 2531 2678 2651 2914 
Q 2772 3150 2772 3378 
Q 2772 3750 2511 3984 
Q 2250 4219 1831 4219 
Q 1534 4219 1204 4116 
Q 875 4013 500 3803 
L 500 4441 
Q 881 4594 1212 4672 
Q 1544 4750 1819 4750 
Q 2544 4750 2975 4387 
Q 3406 4025 3406 3419 
Q 3406 3131 3298 2873 
Q 3191 2616 2906 2266 
Q 2828 2175 2409 1742 
Q 1991 1309 1228 531 
z
" transform="scale(0.015625)"/>
       </defs>
       <use xlink:href="#DejaVuSans-41"/>
       <use xlink:href="#DejaVuSans-72" transform="translate(68.408203 0)"/>
       <use xlink:href="#DejaVuSans-6d" transform="translate(107.771484 0)"/>
       <use xlink:href="#DejaVuSans-20" transform="translate(205.183594 0)"/>
       <use xlink:href="#DejaVuSans-32" transform="translate(236.970703 0)"/>
      </g>
     </g>
    </g>
    <g id="xtick_4">
     <g id="line2d_4">
      <g>
       <use xlink:href="#mb31e3de708" x="377.92" y="390.04" style="stroke: #000000; stroke-width: 0.8"/>
      </g>
     </g>
     <g id="text_4">
      <!-- Arm 3 -->
      <g transform="translate(362.891094 404.638438) scale(0.1 -0.1)">
       <defs>
        <path id="DejaVuSans-33" d="M 2597 2516 
Q 3050 2419 3304 2112 
Q 3559 1806 3559 1356 
Q 3559 666 3084 287 
Q 2609 -91 1734 -91 
Q 1441 -91 1130 -33 
Q 819 25 488 141 
L 488 750 
Q 750 597 1062 519 
Q 1375 441 1716 441 
Q 2309 441 2620 675 
Q 2931 909 2931 1356 
Q 2931 1769 2642 2001 
Q 2353 2234 1838 2234 
L 1294 2234 
L 1294 2753 
L 1863 2753 
Q 2328 2753 2575 2939 
Q 2822 3125 2822 3475 
Q 2822 3834 2567 4026 
Q 2313 4219 1838 4219 
Q 1578 4219 1281 4162 
Q 984 4106 628 3988 
L 628 4550 
Q 988 4650 1302 4700 
Q 1616 4750 1894 4750 
Q 2613 4750 3031 4423 
Q 3450 4097 3450 3541 
Q 3450 3153 3228 2886 
Q 3006 2619 2597 2516 
z
" transform="scale(0.015625)"/>
       </defs>
       <use xlink:href="#DejaVuSans-41"/>
       <use xlink:href="#DejaVuSans-72" transform="translate(68.408203 0)"/>
       <use xlink:href="#DejaVuSans-6d" transform="translate(107.771484 0)"/>
       <use xlink:href="#DejaVuSans-20" transform="translate(205.183594 0)"/>
       <use xlink:href="#DejaVuSans-33" transform="translate(236.970703 0)"/>
      </g>
     </g>
    </g>
    <g id="xtick_5">
     <g id="line2d_5">
      <g>
       <use xlink:href="#mb31e3de708" x="472.571429" y="390.04" style="stroke: #000000; stroke-width: 0.8"/>
      </g>
     </g>
     <g id="text_5">
      <!-- Arm 4 -->
      <g transform="translate(457.542522 404.638438) scale(0.1 -0.1)">
       <defs>
        <path id="DejaVuSans-34" d="M 2419 4116 
L 825 1625 
L 2419 1625 
L 2419 4116 
z
M 2253 4666 
L 3047 4666 
L 3047 1625 
L 3713 1625 
L 3713 1100 
L 3047 1100 
L 3047 0 
L 2419 0 
L 2419 1100 
L 313 1100 
L 313 1709 
L 2253 4666 
z
" transform="scale(0.015625)"/>
       </defs>
       <use xlink:href="#DejaVuSans-41"/>
       <use xlink:href="#DejaVuSans-72" transform="translate(68.408203 0)"/>
       <use xlink:href="#DejaVuSans-6d" transform="translate(107.771484 0)"/>
       <use xlink:href="#DejaVuSans-20" transform="translate(205.183594 0)"/>
       <use xlink:href="#DejaVuSans-34" transform="translate(236.970703 0)"/>
      </g>
     </g>
    </g>
    <g id="xtick_6">
     <g id="line2d_6">
      <g>
       <use xlink:href="#mb31e3de708" x="567.222857" y="390.04" style="stroke: #000000; stroke-width: 0.8"/>
      </g>
     </g>
     <g id="text_6">
      <!-- Arm 5 -->
      <g transform="translate(552.193951 404.638438) scale(0.1 -0.1)">
       <defs>
        <path id="DejaVuSans-35" d="M 691 4666 
L 3169 4666 
L 3169 4134 
L 1269 4134 
L 1269 2991 
Q 1406 3038 1543 3061 
Q 1681 3084 1819 3084 
Q 2600 3084 3056 2656 
Q 3513 2228 3513 1497 
Q 3513 744 3044 326 
Q 2575 -91 1722 -91 
Q 1428 -91 1123 -41 
Q 819 9 494 109 
L 494 744 
Q 775 591 1075 516 
Q 1375 441 1709 441 
Q 2250 441 2565 725 
Q 2881 1009 2881 1497 
Q 2881 1984 2565 2268 
Q 2250 2553 1709 2553 
Q 1456 2553 1204 2497 
Q 953 2441 691 2322 
L 691 4666 
z
" transform="scale(0.015625)"/>
       </defs>
       <use xlink:href="#DejaVuSans-41"/>
       <use xlink:href="#DejaVuSans-72" transform="translate(68.408203 0)"/>
       <use xlink:href="#DejaVuSans-6d" transform="translate(107.771484 0)"/>
       <use xlink:href="#DejaVuSans-20" transform="translate(205.183594 0)"/>
       <use xlink:href="#DejaVuSans-35" transform="translate(236.970703 0)"/>
      </g>
     </g>
    </g>
    <g id="xtick_7">
     <g id="line2d_7">
      <g>
       <use xlink:href="#mb31e3de708" x="661.874286" y="390.04" style="stroke: #000000; stroke-width: 0.8"/>
      </g>
     </g>
     <g id="text_7">
      <!-- Arm 6 -->
      <g transform="translate(646.845379 404.638438) scale(0.1 -0.1)">
       <defs>
        <path id="DejaVuSans-36" d="M 2113 2584 
Q 1688 2584 1439 2293 
Q 1191 2003 1191 1497 
Q 1191 994 1439 701 
Q 1688 409 2113 409 
Q 2538 409 2786 701 
Q 3034 994 3034 1497 
Q 3034 2003 2786 2293 
Q 2538 2584 2113 2584 
z
M 3366 4563 
L 3366 3988 
Q 3128 4100 2886 4159 
Q 2644 4219 2406 4219 
Q 1781 4219 1451 3797 
Q 1122 3375 1075 2522 
Q 1259 2794 1537 2939 
Q 1816 3084 2150 3084 
Q 2853 3084 3261 2657 
Q 3669 2231 3669 1497 
Q 3669 778 3244 343 
Q 2819 -91 2113 -91 
Q 1303 -91 875 529 
Q 447 1150 447 2328 
Q 447 3434 972 4092 
Q 1497 4750 2381 4750 
Q 2619 4750 2861 4703 
Q 3103 4656 3366 4563 
z
" transform="scale(0.015625)"/>
       </defs>
       <use xlink:href="#DejaVuSans-41"/>
       <use xlink:href="#DejaVuSans-72" transform="translate(68.408203 0)"/>
       <use xlink:href="#DejaVuSans-6d" transform="translate(107.771484 0)"/>
       <use xlink:href="#DejaVuSans-20" transform="translate(205.183594 0)"/>
       <use xlink:href="#DejaVuSans-36" transform="translate(236.970703 0)"/>
      </g>
     </g>
    </g>
    <g id="text_8">
     <!-- Arms -->
     <g transform="translate(365.056719 418.316562) scale(0.1 -0.1)">
      <defs>
       <path id="DejaVuSans-73" d="M 2834 3397 
L 2834 2853 
Q 2591 2978 2328 3040 
Q 2066 3103 1784 3103 
Q 1356 3103 1142 2972 
Q 928 2841 928 2578 
Q 928 2378 1081 2264 
Q 1234 2150 1697 2047 
L 1894 2003 
Q 2506 1872 2764 1633 
Q 3022 1394 3022 966 
Q 3022 478 2636 193 
Q 2250 -91 1575 -91 
Q 1294 -91 989 -36 
Q 684 19 347 128 
L 347 722 
Q 666 556 975 473 
Q 1284 391 1588 391 
Q 1994 391 2212 530 
Q 2431 669 2431 922 
Q 2431 1156 2273 1281 
Q 2116 1406 1581 1522 
L 1381 1569 
Q 847 1681 609 1914 
Q 372 2147 372 2553 
Q 372 3047 722 3315 
Q 1072 3584 1716 3584 
Q 2034 3584 2315 3537 
Q 2597 3491 2834 3397 
z
" transform="scale(0.015625)"/>
      </defs>
      <use xlink:href="#DejaVuSans-41"/>
      <use xlink:href="#DejaVuSans-72" transform="translate(68.408203 0)"/>
      <use xlink:href="#DejaVuSans-6d" transform="translate(107.771484 0)"/>
      <use xlink:href="#DejaVuSans-73" transform="translate(205.183594 0)"/>
     </g>
    </g>
   </g>
   <g id="matplotlib.axis_2">
    <g id="ytick_1">
     <g id="line2d_8">
      <defs>
       <path id="m4fd79f765d" d="M 0 0 
L -3.5 0 
" style="stroke: #000000; stroke-width: 0.8"/>
      </defs>
      <g>
       <use xlink:href="#m4fd79f765d" x="46.64" y="383.844621" style="stroke: #000000; stroke-width: 0.8"/>
      </g>
     </g>
     <g id="text_9">
      <!-- 6 -->
      <g transform="translate(24.897813 387.64384) scale(0.1 -0.1)">
       <defs>
        <path id="DejaVuSans-2212" d="M 678 2272 
L 4684 2272 
L 4684 1741 
L 678 1741 
L 678 2272 
z
" transform="scale(0.015625)"/>
       </defs>
       <use xlink:href="#DejaVuSans-2212"/>
       <use xlink:href="#DejaVuSans-36" transform="translate(83.789062 0)"/>
      </g>
     </g>
    </g>
    <g id="ytick_2">
     <g id="line2d_9">
      <g>
       <use xlink:href="#m4fd79f765d" x="46.64" y="320.788653" style="stroke: #000000; stroke-width: 0.8"/>
      </g>
     </g>
     <g id="text_10">
      <!-- 4 -->
      <g transform="translate(24.897813 324.587871) scale(0.1 -0.1)">
       <use xlink:href="#DejaVuSans-2212"/>
       <use xlink:href="#DejaVuSans-34" transform="translate(83.789062 0)"/>
      </g>
     </g>
    </g>
    <g id="ytick_3">
     <g id="line2d_10">
      <g>
       <use xlink:href="#m4fd79f765d" x="46.64" y="257.732684" style="stroke: #000000; stroke-width: 0.8"/>
      </g>
     </g>
     <g id="text_11">
      <!-- 2 -->
      <g transform="translate(24.897813 261.531903) scale(0.1 -0.1)">
       <use xlink:href="#DejaVuSans-2212"/>
       <use xlink:href="#DejaVuSans-32" transform="translate(83.789062 0)"/>
      </g>
     </g>
    </g>
    <g id="ytick_4">
     <g id="line2d_11">
      <g>
       <use xlink:href="#m4fd79f765d" x="46.64" y="194.676716" style="stroke: #000000; stroke-width: 0.8"/>
      </g>
     </g>
     <g id="text_12">
      <!-- 0 -->
      <g transform="translate(33.2775 198.475935) scale(0.1 -0.1)">
       <use xlink:href="#DejaVuSans-30"/>
      </g>
     </g>
    </g>
    <g id="ytick_5">
     <g id="line2d_12">
      <g>
       <use xlink:href="#m4fd79f765d" x="46.64" y="131.620747" style="stroke: #000000; stroke-width: 0.8"/>
      </g>
     </g>
     <g id="text_13">
      <!-- 2 -->
      <g transform="translate(33.2775 135.419966) scale(0.1 -0.1)">
       <use xlink:href="#DejaVuSans-32"/>
      </g>
     </g>
    </g>
    <g id="ytick_6">
     <g id="line2d_13">
      <g>
       <use xlink:href="#m4fd79f765d" x="46.64" y="68.564779" style="stroke: #000000; stroke-width: 0.8"/>
      </g>
     </g>
     <g id="text_14">
      <!-- 4 -->
      <g transform="translate(33.2775 72.363998) scale(0.1 -0.1)">
       <use xlink:href="#DejaVuSans-34"/>
      </g>
     </g>
    </g>
    <g id="text_15">
     <!-- Reward -->
     <g transform="translate(18.818125 227.081094) rotate(-90) scale(0.1 -0.1)">
      <defs>
       <path id="DejaVuSans-52" d="M 2841 2188 
Q 3044 2119 3236 1894 
Q 3428 1669 3622 1275 
L 4263 0 
L 3584 0 
L 2988 1197 
Q 2756 1666 2539 1819 
Q 2322 1972 1947 1972 
L 1259 1972 
L 1259 0 
L 628 0 
L 628 4666 
L 2053 4666 
Q 2853 4666 3247 4331 
Q 3641 3997 3641 3322 
Q 3641 2881 3436 2590 
Q 3231 2300 2841 2188 
z
M 1259 4147 
L 1259 2491 
L 2053 2491 
Q 2509 2491 2742 2702 
Q 2975 2913 2975 3322 
Q 2975 3731 2742 3939 
Q 2509 4147 2053 4147 
L 1259 4147 
z
" transform="scale(0.015625)"/>
       <path id="DejaVuSans-65" d="M 3597 1894 
L 3597 1613 
L 953 1613 
Q 991 1019 1311 708 
Q 1631 397 2203 397 
Q 2534 397 2845 478 
Q 3156 559 3463 722 
L 3463 178 
Q 3153 47 2828 -22 
Q 2503 -91 2169 -91 
Q 1331 -91 842 396 
Q 353 884 353 1716 
Q 353 2575 817 3079 
Q 1281 3584 2069 3584 
Q 2775 3584 3186 3129 
Q 3597 2675 3597 1894 
z
M 3022 2063 
Q 3016 2534 2758 2815 
Q 2500 3097 2075 3097 
Q 1594 3097 1305 2825 
Q 1016 2553 972 2059 
L 3022 2063 
z
" transform="scale(0.015625)"/>
       <path id="DejaVuSans-77" d="M 269 3500 
L 844 3500 
L 1563 769 
L 2278 3500 
L 2956 3500 
L 3675 769 
L 4391 3500 
L 4966 3500 
L 4050 0 
L 3372 0 
L 2619 2869 
L 1863 0 
L 1184 0 
L 269 3500 
z
" transform="scale(0.015625)"/>
       <path id="DejaVuSans-61" d="M 2194 1759 
Q 1497 1759 1228 1600 
Q 959 1441 959 1056 
Q 959 750 1161 570 
Q 1363 391 1709 391 
Q 2188 391 2477 730 
Q 2766 1069 2766 1631 
L 2766 1759 
L 2194 1759 
z
M 3341 1997 
L 3341 0 
L 2766 0 
L 2766 531 
Q 2569 213 2275 61 
Q 1981 -91 1556 -91 
Q 1019 -91 701 211 
Q 384 513 384 1019 
Q 384 1609 779 1909 
Q 1175 2209 1959 2209 
L 2766 2209 
L 2766 2266 
Q 2766 2663 2505 2880 
Q 2244 3097 1772 3097 
Q 1472 3097 1187 3025 
Q 903 2953 641 2809 
L 641 3341 
Q 956 3463 1253 3523 
Q 1550 3584 1831 3584 
Q 2591 3584 2966 3190 
Q 3341 2797 3341 1997 
z
" transform="scale(0.015625)"/>
       <path id="DejaVuSans-64" d="M 2906 2969 
L 2906 4863 
L 3481 4863 
L 3481 0 
L 2906 0 
L 2906 525 
Q 2725 213 2448 61 
Q 2172 -91 1784 -91 
Q 1150 -91 751 415 
Q 353 922 353 1747 
Q 353 2572 751 3078 
Q 1150 3584 1784 3584 
Q 2172 3584 2448 3432 
Q 2725 3281 2906 2969 
z
M 947 1747 
Q 947 1113 1208 752 
Q 1469 391 1925 391 
Q 2381 391 2643 752 
Q 2906 1113 2906 1747 
Q 2906 2381 2643 2742 
Q 2381 3103 1925 3103 
Q 1469 3103 1208 2742 
Q 947 2381 947 1747 
z
" transform="scale(0.015625)"/>
      </defs>
      <use xlink:href="#DejaVuSans-52"/>
      <use xlink:href="#DejaVuSans-65" transform="translate(64.982422 0)"/>
      <use xlink:href="#DejaVuSans-77" transform="translate(126.505859 0)"/>
      <use xlink:href="#DejaVuSans-61" transform="translate(208.292969 0)"/>
      <use xlink:href="#DejaVuSans-72" transform="translate(269.572266 0)"/>
      <use xlink:href="#DejaVuSans-64" transform="translate(308.935547 0)"/>
     </g>
    </g>
   </g>
   <g id="line2d_14">
    <path d="M 64.417678 229.665373 
L 123.513751 229.665373 
" clip-path="url(#p8395c5cb1e)" style="fill: none; stroke-dasharray: 1.5625,0.9375; stroke-dashoffset: 0; stroke: #131313; stroke-width: 1.25"/>
   </g>
   <g id="line2d_15">
    <path d="M 56.12355 208.829297 
L 131.807878 208.829297 
" clip-path="url(#p8395c5cb1e)" style="fill: none; stroke-dasharray: 3.125,1.25; stroke-dashoffset: 0; stroke: #131313; stroke-width: 1.25"/>
   </g>
   <g id="line2d_16">
    <path d="M 63.491434 187.514473 
L 124.439994 187.514473 
" clip-path="url(#p8395c5cb1e)" style="fill: none; stroke-dasharray: 1.5625,0.9375; stroke-dashoffset: 0; stroke: #131313; stroke-width: 1.25"/>
   </g>
   <g id="line2d_17">
    <path d="M 158.026476 197.366452 
L 219.20781 197.366452 
" clip-path="url(#p8395c5cb1e)" style="fill: none; stroke-dasharray: 1.5625,0.9375; stroke-dashoffset: 0; stroke: #131313; stroke-width: 1.25"/>
   </g>
   <g id="line2d_18">
    <path d="M 150.972678 175.813739 
L 226.261608 175.813739 
" clip-path="url(#p8395c5cb1e)" style="fill: none; stroke-dasharray: 3.125,1.25; stroke-dashoffset: 0; stroke: #131313; stroke-width: 1.25"/>
   </g>
   <g id="line2d_19">
    <path d="M 157.633026 154.706796 
L 219.60126 154.706796 
" clip-path="url(#p8395c5cb1e)" style="fill: none; stroke-dasharray: 1.5625,0.9375; stroke-dashoffset: 0; stroke: #131313; stroke-width: 1.25"/>
   </g>
   <g id="line2d_20">
    <path d="M 253.870688 193.555687 
L 312.666455 193.555687 
" clip-path="url(#p8395c5cb1e)" style="fill: none; stroke-dasharray: 1.5625,0.9375; stroke-dashoffset: 0; stroke: #131313; stroke-width: 1.25"/>
   </g>
   <g id="line2d_21">
    <path d="M 245.415653 172.429853 
L 321.12149 172.429853 
" clip-path="url(#p8395c5cb1e)" style="fill: none; stroke-dasharray: 3.125,1.25; stroke-dashoffset: 0; stroke: #131313; stroke-width: 1.25"/>
   </g>
   <g id="line2d_22">
    <path d="M 252.794389 151.396518 
L 313.742753 151.396518 
" clip-path="url(#p8395c5cb1e)" style="fill: none; stroke-dasharray: 1.5625,0.9375; stroke-dashoffset: 0; stroke: #131313; stroke-width: 1.25"/>
   </g>
   <g id="line2d_23">
    <path d="M 347.038137 255.577896 
L 408.801863 255.577896 
" clip-path="url(#p8395c5cb1e)" style="fill: none; stroke-dasharray: 1.5625,0.9375; stroke-dashoffset: 0; stroke: #131313; stroke-width: 1.25"/>
   </g>
   <g id="line2d_24">
    <path d="M 340.095724 234.38762 
L 415.744276 234.38762 
" clip-path="url(#p8395c5cb1e)" style="fill: none; stroke-dasharray: 3.125,1.25; stroke-dashoffset: 0; stroke: #131313; stroke-width: 1.25"/>
   </g>
   <g id="line2d_25">
    <path d="M 347.925364 213.291184 
L 407.914636 213.291184 
" clip-path="url(#p8395c5cb1e)" style="fill: none; stroke-dasharray: 1.5625,0.9375; stroke-dashoffset: 0; stroke: #131313; stroke-width: 1.25"/>
   </g>
   <g id="line2d_26">
    <path d="M 443.789493 212.738672 
L 501.353364 212.738672 
" clip-path="url(#p8395c5cb1e)" style="fill: none; stroke-dasharray: 1.5625,0.9375; stroke-dashoffset: 0; stroke: #131313; stroke-width: 1.25"/>
   </g>
   <g id="line2d_27">
    <path d="M 434.80905 191.653891 
L 510.333807 191.653891 
" clip-path="url(#p8395c5cb1e)" style="fill: none; stroke-dasharray: 3.125,1.25; stroke-dashoffset: 0; stroke: #131313; stroke-width: 1.25"/>
   </g>
   <g id="line2d_28">
    <path d="M 442.261391 170.389671 
L 502.881466 170.389671 
" clip-path="url(#p8395c5cb1e)" style="fill: none; stroke-dasharray: 1.5625,0.9375; stroke-dashoffset: 0; stroke: #131313; stroke-width: 1.25"/>
   </g>
   <g id="line2d_29">
    <path d="M 536.848009 215.960431 
L 597.597706 215.960431 
" clip-path="url(#p8395c5cb1e)" style="fill: none; stroke-dasharray: 1.5625,0.9375; stroke-dashoffset: 0; stroke: #131313; stroke-width: 1.25"/>
   </g>
   <g id="line2d_30">
    <path d="M 529.645869 194.748057 
L 604.799845 194.748057 
" clip-path="url(#p8395c5cb1e)" style="fill: none; stroke-dasharray: 3.125,1.25; stroke-dashoffset: 0; stroke: #131313; stroke-width: 1.25"/>
   </g>
   <g id="line2d_31">
    <path d="M 536.760389 173.140261 
L 597.685325 173.140261 
" clip-path="url(#p8395c5cb1e)" style="fill: none; stroke-dasharray: 1.5625,0.9375; stroke-dashoffset: 0; stroke: #131313; stroke-width: 1.25"/>
   </g>
   <g id="line2d_32">
    <path d="M 631.377385 226.405335 
L 692.371186 226.405335 
" clip-path="url(#p8395c5cb1e)" style="fill: none; stroke-dasharray: 1.5625,0.9375; stroke-dashoffset: 0; stroke: #131313; stroke-width: 1.25"/>
   </g>
   <g id="line2d_33">
    <path d="M 624.111058 205.00196 
L 699.637513 205.00196 
" clip-path="url(#p8395c5cb1e)" style="fill: none; stroke-dasharray: 3.125,1.25; stroke-dashoffset: 0; stroke: #131313; stroke-width: 1.25"/>
   </g>
   <g id="line2d_34">
    <path d="M 630.60436 184.231321 
L 693.144211 184.231321 
" clip-path="url(#p8395c5cb1e)" style="fill: none; stroke-dasharray: 1.5625,0.9375; stroke-dashoffset: 0; stroke: #131313; stroke-width: 1.25"/>
   </g>
   <g id="patch_3">
    <path d="M 46.64 390.04 
L 46.64 26.88 
" style="fill: none; stroke: #000000; stroke-width: 0.8; stroke-linejoin: miter; stroke-linecap: square"/>
   </g>
   <g id="patch_4">
    <path d="M 709.2 390.04 
L 709.2 26.88 
" style="fill: none; stroke: #000000; stroke-width: 0.8; stroke-linejoin: miter; stroke-linecap: square"/>
   </g>
   <g id="patch_5">
    <path d="M 46.64 390.04 
L 709.2 390.04 
" style="fill: none; stroke: #000000; stroke-width: 0.8; stroke-linejoin: miter; stroke-linecap: square"/>
   </g>
   <g id="patch_6">
    <path d="M 46.64 26.88 
L 709.2 26.88 
" style="fill: none; stroke: #000000; stroke-width: 0.8; stroke-linejoin: miter; stroke-linecap: square"/>
   </g>
   <g id="text_16">
    <!-- Bandit Reward Distributions -->
    <g transform="translate(294.20875 20.88) scale(0.12 -0.12)">
     <defs>
      <path id="DejaVuSans-42" d="M 1259 2228 
L 1259 519 
L 2272 519 
Q 2781 519 3026 730 
Q 3272 941 3272 1375 
Q 3272 1813 3026 2020 
Q 2781 2228 2272 2228 
L 1259 2228 
z
M 1259 4147 
L 1259 2741 
L 2194 2741 
Q 2656 2741 2882 2914 
Q 3109 3088 3109 3444 
Q 3109 3797 2882 3972 
Q 2656 4147 2194 4147 
L 1259 4147 
z
M 628 4666 
L 2241 4666 
Q 2963 4666 3353 4366 
Q 3744 4066 3744 3513 
Q 3744 3084 3544 2831 
Q 3344 2578 2956 2516 
Q 3422 2416 3680 2098 
Q 3938 1781 3938 1306 
Q 3938 681 3513 340 
Q 3088 0 2303 0 
L 628 0 
L 628 4666 
z
" transform="scale(0.015625)"/>
      <path id="DejaVuSans-6e" d="M 3513 2113 
L 3513 0 
L 2938 0 
L 2938 2094 
Q 2938 2591 2744 2837 
Q 2550 3084 2163 3084 
Q 1697 3084 1428 2787 
Q 1159 2491 1159 1978 
L 1159 0 
L 581 0 
L 581 3500 
L 1159 3500 
L 1159 2956 
Q 1366 3272 1645 3428 
Q 1925 3584 2291 3584 
Q 2894 3584 3203 3211 
Q 3513 2838 3513 2113 
z
" transform="scale(0.015625)"/>
      <path id="DejaVuSans-69" d="M 603 3500 
L 1178 3500 
L 1178 0 
L 603 0 
L 603 3500 
z
M 603 4863 
L 1178 4863 
L 1178 4134 
L 603 4134 
L 603 4863 
z
" transform="scale(0.015625)"/>
      <path id="DejaVuSans-74" d="M 1172 4494 
L 1172 3500 
L 2356 3500 
L 2356 3053 
L 1172 3053 
L 1172 1153 
Q 1172 725 1289 603 
Q 1406 481 1766 481 
L 2356 481 
L 2356 0 
L 1766 0 
Q 1100 0 847 248 
Q 594 497 594 1153 
L 594 3053 
L 172 3053 
L 172 3500 
L 594 3500 
L 594 4494 
L 1172 4494 
z
" transform="scale(0.015625)"/>
      <path id="DejaVuSans-44" d="M 1259 4147 
L 1259 519 
L 2022 519 
Q 2988 519 3436 956 
Q 3884 1394 3884 2338 
Q 3884 3275 3436 3711 
Q 2988 4147 2022 4147 
L 1259 4147 
z
M 628 4666 
L 1925 4666 
Q 3281 4666 3915 4102 
Q 4550 3538 4550 2338 
Q 4550 1131 3912 565 
Q 3275 0 1925 0 
L 628 0 
L 628 4666 
z
" transform="scale(0.015625)"/>
      <path id="DejaVuSans-62" d="M 3116 1747 
Q 3116 2381 2855 2742 
Q 2594 3103 2138 3103 
Q 1681 3103 1420 2742 
Q 1159 2381 1159 1747 
Q 1159 1113 1420 752 
Q 1681 391 2138 391 
Q 2594 391 2855 752 
Q 3116 1113 3116 1747 
z
M 1159 2969 
Q 1341 3281 1617 3432 
Q 1894 3584 2278 3584 
Q 2916 3584 3314 3078 
Q 3713 2572 3713 1747 
Q 3713 922 3314 415 
Q 2916 -91 2278 -91 
Q 1894 -91 1617 61 
Q 1341 213 1159 525 
L 1159 0 
L 581 0 
L 581 4863 
L 1159 4863 
L 1159 2969 
z
" transform="scale(0.015625)"/>
      <path id="DejaVuSans-75" d="M 544 1381 
L 544 3500 
L 1119 3500 
L 1119 1403 
Q 1119 906 1312 657 
Q 1506 409 1894 409 
Q 2359 409 2629 706 
Q 2900 1003 2900 1516 
L 2900 3500 
L 3475 3500 
L 3475 0 
L 2900 0 
L 2900 538 
Q 2691 219 2414 64 
Q 2138 -91 1772 -91 
Q 1169 -91 856 284 
Q 544 659 544 1381 
z
M 1991 3584 
L 1991 3584 
z
" transform="scale(0.015625)"/>
      <path id="DejaVuSans-6f" d="M 1959 3097 
Q 1497 3097 1228 2736 
Q 959 2375 959 1747 
Q 959 1119 1226 758 
Q 1494 397 1959 397 
Q 2419 397 2687 759 
Q 2956 1122 2956 1747 
Q 2956 2369 2687 2733 
Q 2419 3097 1959 3097 
z
M 1959 3584 
Q 2709 3584 3137 3096 
Q 3566 2609 3566 1747 
Q 3566 888 3137 398 
Q 2709 -91 1959 -91 
Q 1206 -91 779 398 
Q 353 888 353 1747 
Q 353 2609 779 3096 
Q 1206 3584 1959 3584 
z
" transform="scale(0.015625)"/>
     </defs>
     <use xlink:href="#DejaVuSans-42"/>
     <use xlink:href="#DejaVuSans-61" transform="translate(68.603516 0)"/>
     <use xlink:href="#DejaVuSans-6e" transform="translate(129.882812 0)"/>
     <use xlink:href="#DejaVuSans-64" transform="translate(193.261719 0)"/>
     <use xlink:href="#DejaVuSans-69" transform="translate(256.738281 0)"/>
     <use xlink:href="#DejaVuSans-74" transform="translate(284.521484 0)"/>
     <use xlink:href="#DejaVuSans-20" transform="translate(323.730469 0)"/>
     <use xlink:href="#DejaVuSans-52" transform="translate(355.517578 0)"/>
     <use xlink:href="#DejaVuSans-65" transform="translate(420.5 0)"/>
     <use xlink:href="#DejaVuSans-77" transform="translate(482.023438 0)"/>
     <use xlink:href="#DejaVuSans-61" transform="translate(563.810547 0)"/>
     <use xlink:href="#DejaVuSans-72" transform="translate(625.089844 0)"/>
     <use xlink:href="#DejaVuSans-64" transform="translate(664.453125 0)"/>
     <use xlink:href="#DejaVuSans-20" transform="translate(727.929688 0)"/>
     <use xlink:href="#DejaVuSans-44" transform="translate(759.716797 0)"/>
     <use xlink:href="#DejaVuSans-69" transform="translate(836.71875 0)"/>
     <use xlink:href="#DejaVuSans-73" transform="translate(864.501953 0)"/>
     <use xlink:href="#DejaVuSans-74" transform="translate(916.601562 0)"/>
     <use xlink:href="#DejaVuSans-72" transform="translate(955.810547 0)"/>
     <use xlink:href="#DejaVuSans-69" transform="translate(996.923828 0)"/>
     <use xlink:href="#DejaVuSans-62" transform="translate(1024.707031 0)"/>
     <use xlink:href="#DejaVuSans-75" transform="translate(1088.183594 0)"/>
     <use xlink:href="#DejaVuSans-74" transform="translate(1151.5625 0)"/>
     <use xlink:href="#DejaVuSans-69" transform="translate(1190.771484 0)"/>
     <use xlink:href="#DejaVuSans-6f" transform="translate(1218.554688 0)"/>
     <use xlink:href="#DejaVuSans-6e" transform="translate(1279.736328 0)"/>
     <use xlink:href="#DejaVuSans-73" transform="translate(1343.115234 0)"/>
    </g>
   </g>
  </g>
 </g>
 <defs>
  <clipPath id="p8395c5cb1e">
   <rect x="46.64" y="26.88" width="662.56" height="363.16"/>
  </clipPath>
 </defs>
</svg>
